# xmcd
#
# Track frame offsets:
#	150
#	11709
#	21731
#	33748
#	45391
#	54593
#	64255
#	76462
#	86894
#	98196
#	109433
#	120306
#	132025
#	141217
#	151516
#	160670
#	172668
#	182840
#	193987
#	206337
#
# Disc length: 2921 seconds
#
# Revision: 1
# Processed by: cddbd v1.5.2PL0 Copyright (c) Steve Scherf et al.
# Submitted via: audiograbber 1.83.01
#
DISCID=0f0b6714
DTITLE=Don Gibson - The Essential Recordings Disc 2
DYEAR=2012
DGENRE=Country
TTITLE0=Oh Lonesome Me
TTITLE1=I'm Movin' On
TTITLE2=Bad Bad Day
TTITLE3=Sea Of Heartbreak
TTITLE4=Wait For the Light To Shine
TTITLE5=I Couldn't Care Less
TTITLE6=No Shoulder To Cry On
TTITLE7=Don't Tell Me Your Troubles
TTITLE8=I Ain't Gonna Waste My Time
TTITLE9=It Has To Be
TTITLE10=Walkin' In the Moonlight
TTITLE11=Too Soon to Know
TTITLE12=As Much
TTITLE13=I Can't Leave
TTITLE14=Do You Think
TTITLE15=I Must Forget You
TTITLE16=Midnight
TTITLE17=Ice Cold Heart
TTITLE18=I Wish It Had Been a Dream
TTITLE19=Where No One Stands Alone
EXTD=
EXTT0=
EXTT1=
EXTT2=
EXTT3=
EXTT4=
EXTT5=
EXTT6=
EXTT7=
EXTT8=
EXTT9=
EXTT10=
EXTT11=
EXTT12=
EXTT13=
EXTT14=
EXTT15=
EXTT16=
EXTT17=
EXTT18=
EXTT19=
PLAYORDER=
